<?xml version="1.0" encoding="utf-8"?>
<!-- Generated by IcoMoon.io -->
<!DOCTYPE svg PUBLIC "-//W3C//DTD SVG 1.1//EN" "http://www.w3.org/Graphics/SVG/1.1/DTD/svg11.dtd">
<svg version="1.1" xmlns="http://www.w3.org/2000/svg" xmlns:xlink="http://www.w3.org/1999/xlink" width="48" height="32" viewBox="0 0 48 32">
<path d="M13.976 16.767h-0.269c-0.65 0-0.979 0.221-0.979 0.667 0 0.305 0.137 0.461 0.415 0.461 0.235 0 0.432-0.103 0.583-0.314 0.154-0.211 0.235-0.48 0.25-0.814zM22.204 16.018h1.293v-0.065c0.014-0.053 0.048-0.103 0.103-0.137 0.053-0.034 0.048-0.084-0.019-0.146-0.070-0.065-0.084-0.118-0.043-0.166 0.043-0.048 0.010-0.094-0.094-0.137s-0.156-0.079-0.156-0.103c0-0.029-0.079-0.043-0.24-0.043-0.386 0-0.636 0.264-0.749 0.794h-0.094l-0.002 0.002zM33.454 16.767h-0.25c-0.667 0-0.998 0.221-0.998 0.667 0 0.305 0.137 0.461 0.415 0.461 0.235 0 0.432-0.103 0.583-0.314s0.235-0.48 0.25-0.814zM40.099 16.229c0-0.569-0.211-0.852-0.626-0.852-0.264 0-0.48 0.137-0.646 0.415s-0.25 0.631-0.25 1.063c0 0.583 0.197 0.876 0.583 0.876 0.278 0 0.504-0.137 0.677-0.415 0.168-0.278 0.262-0.641 0.262-1.087zM10 13.29h1.812l-0.917 5.455h-1.166l0.667-4.187-1.483 4.187h-0.813l-0.084-4.168-0.71 4.168h-1.101l0.917-5.455h1.689l0.043 3.393 1.147-3.393zM15.269 15.519c0 0.084-0.029 0.377-0.084 0.876-0.221 1.401-0.338 2.189-0.353 2.357h-0.979l0.019-0.461c-0.278 0.362-0.681 0.545-1.209 0.545-0.319 0-0.578-0.113-0.785-0.334-0.202-0.221-0.305-0.514-0.305-0.876 0-0.545 0.182-0.96 0.545-1.257s0.866-0.446 1.524-0.446c0.197 0 0.353 0.005 0.48 0.019 0-0.043 0.034-0.079 0.103-0.113s0.079-0.065 0.019-0.094c-0.053-0.029-0.019-0.048 0.103-0.065 0-0.278-0.25-0.415-0.749-0.415-0.401 0-0.813 0.070-1.229 0.211 0-0.053 0.048-0.386 0.146-0.998 0.528-0.151 0.993-0.23 1.397-0.23 1.029 0 1.543 0.432 1.543 1.293h-0.187v-0.012zM18.516 14.309l-0.166 1.017c-0.305-0.043-0.593-0.065-0.852-0.065-0.377 0-0.564 0.118-0.564 0.353 0 0.113 0.029 0.197 0.094 0.25s0.211 0.132 0.446 0.23c0.554 0.264 0.833 0.681 0.833 1.248 0 0.998-0.602 1.493-1.812 1.478-0.47 0-0.876-0.043-1.209-0.127 0-0.029 0.048-0.367 0.146-1.017 0.401 0.113 0.758 0.166 1.063 0.166 0.446 0 0.667-0.132 0.667-0.396 0-0.098-0.029-0.175-0.094-0.24s-0.211-0.146-0.446-0.259c-0.598-0.278-0.895-0.686-0.895-1.229 0-0.998 0.583-1.497 1.749-1.497 0.418 0.005 0.765 0.034 1.039 0.089v0zM20.354 14.309h0.583l-0.146 1.082h-0.602c-0.029 0.235-0.074 0.518-0.137 0.842-0.065 0.329-0.113 0.593-0.146 0.804s-0.053 0.334-0.053 0.377c0 0.221 0.132 0.334 0.396 0.334 0.113 0 0.221-0.014 0.334-0.038l-0.166 0.979c-0.293 0.098-0.569 0.146-0.833 0.146-0.598 0-0.912-0.329-0.936-0.979 0-0.166 0.053-0.554 0.166-1.166 0.043-0.278 0.216-1.293 0.518-3.040h1.147l-0.125 0.66zM24.58 15.833c0 0.319-0.048 0.681-0.146 1.082h-2.311c-0.043 0.305 0.029 0.533 0.211 0.686 0.182 0.151 0.446 0.23 0.794 0.23 0.415 0 0.818-0.098 1.209-0.293l-0.187 1.125c-0.415 0.113-0.814 0.166-1.185 0.166-1.317 0-1.977-0.662-1.977-1.977 0-0.763 0.192-1.392 0.574-1.886s0.866-0.739 1.449-0.739c0.485 0 0.871 0.146 1.157 0.437 0.271 0.29 0.413 0.684 0.413 1.169v0zM27.474 14.29c-0.182 0.319-0.334 0.749-0.461 1.293-0.305-0.029-0.518 0.137-0.646 0.499s-0.298 1.248-0.518 2.664h-1.166l0.065-0.293c0.305-1.807 0.504-3.189 0.602-4.144h1.063l-0.065 0.686c0.197-0.293 0.372-0.494 0.528-0.612 0.166-0.118 0.362-0.149 0.598-0.094v0zM31.371 13.438l-0.187 1.185c-0.386-0.197-0.734-0.293-1.044-0.293-0.432 0-0.785 0.192-1.063 0.574s-0.415 0.871-0.415 1.469c0 0.415 0.094 0.744 0.278 0.979s0.456 0.353 0.804 0.353c0.293 0 0.626-0.089 0.998-0.269l-0.211 1.229c-0.386 0.113-0.734 0.166-1.044 0.166-0.626 0-1.121-0.211-1.488-0.636-0.367-0.422-0.554-0.993-0.554-1.718 0-0.969 0.245-1.769 0.739-2.385s1.125-0.926 1.905-0.926c0.372 0.002 0.792 0.091 1.281 0.274v0zM34.748 15.519c0 0.25-0.029 0.545-0.084 0.876-0.182 1.097-0.298 1.881-0.353 2.357h-0.96l0.019-0.461c-0.278 0.362-0.686 0.545-1.229 0.545-0.319 0-0.578-0.113-0.768-0.334-0.197-0.221-0.293-0.514-0.293-0.876 0-0.545 0.175-0.96 0.528-1.257s0.857-0.446 1.509-0.446c0.211 0 0.367 0.005 0.48 0.019 0.029-0.098 0.043-0.187 0.043-0.269 0-0.278-0.25-0.415-0.749-0.415-0.401 0-0.813 0.070-1.229 0.211 0-0.053 0.053-0.386 0.166-0.998 0.528-0.151 0.993-0.23 1.397-0.23 1.010-0.014 1.521 0.418 1.521 1.279v0zM37.685 14.29c-0.197 0.334-0.338 0.763-0.437 1.293-0.319-0.029-0.538 0.132-0.655 0.48s-0.293 1.243-0.528 2.688h-1.166l0.065-0.293c0.264-1.445 0.466-2.827 0.602-4.144h1.082c0 0.151-0.029 0.382-0.084 0.686 0.211-0.293 0.391-0.494 0.554-0.612 0.151-0.122 0.341-0.154 0.566-0.098v0zM40.62 13.29h1.166l-0.89 5.455h-1.101l0.065-0.396c-0.319 0.319-0.681 0.48-1.082 0.48-0.432 0-0.773-0.166-1.034-0.499-0.254-0.334-0.386-0.777-0.386-1.332 0-0.734 0.192-1.375 0.574-1.915 0.382-0.545 0.828-0.813 1.341-0.813 0.432 0 0.799 0.202 1.101 0.602l0.247-1.581zM42.931 15.999c0-2.057-0.504-3.952-1.509-5.685-1.003-1.733-2.38-3.11-4.123-4.123-1.745-1.013-3.643-1.524-5.694-1.524-2.512 0-4.79 0.763-6.832 2.292 1.764 1.61 2.954 3.585 3.561 5.915h-1.044c-0.612-2.081-1.709-3.84-3.29-5.27-1.581 1.43-2.678 3.189-3.29 5.27h-1.044c0.612-2.33 1.797-4.305 3.561-5.915-2.042-1.529-4.319-2.292-6.832-2.292-2.057 0-3.952 0.509-5.694 1.524-1.745 1.013-3.12 2.39-4.123 4.123-1.008 1.733-1.509 3.633-1.509 5.685 0 2.057 0.504 3.952 1.509 5.685 1.008 1.733 2.38 3.11 4.123 4.123 1.745 1.013 3.643 1.524 5.694 1.524 2.512 0 4.79-0.763 6.832-2.292-1.665-1.543-2.81-3.374-3.439-5.5h1.041c0.636 1.915 1.694 3.535 3.168 4.852 1.473-1.317 2.527-2.937 3.168-4.852h1.044c-0.626 2.126-1.773 3.957-3.439 5.5 2.042 1.529 4.319 2.292 6.832 2.292 2.057 0 3.952-0.504 5.694-1.524 1.745-1.013 3.12-2.39 4.123-4.123 1.013-1.733 1.512-3.628 1.512-5.685v0zM47.994 2.668v26.661c0 0.72-0.264 1.346-0.794 1.877-0.528 0.528-1.152 0.794-1.877 0.794h-42.659c-0.72 0-1.346-0.264-1.877-0.794-0.523-0.528-0.789-1.152-0.789-1.877v-26.661c0-0.72 0.264-1.346 0.794-1.877s1.152-0.794 1.877-0.794h42.662c0.72 0 1.346 0.264 1.877 0.794 0.523 0.53 0.787 1.152 0.787 1.877z"></path>
</svg>
