<svg xmlns="http://www.w3.org/2000/svg" viewBox="0 0 5456 648">
  <path fill="#005EAE" d="M1818 0h1819v648H1818z"/>
  <path fill="#0067B4" d="M1983.2 117l46.9 33.4-46.9-33.4m-83.5-59.1l-81.7 58.6v118.3l164.6-117.7m580.7 413L2397.7 648h166.1l82.5-58.5M2410 420.3l-76.5-54.4-302.4-215.1 35.1 25.4L1818 352.4v118.1l331.2-235.2 82.2 58.6L1818 587.8V648h83.7l413.7-294.4 82.4 59L2066.6 648h166.1l248.1-176.6M3557.9 58.2l-.1-.1L3475 0h-165l165.2 116.8.2.2m-83.2 59.2l-.2-.1L3143.6 0h-165l330.9 234.9.1.1m-83.2 59.2l-.1-.1L2812.1 0h-164.9l496.5 352.9.2.1m-83.2 59.3l-.2-.2L2480.7 0H2316l661.9 470.9.2.1m-83.2 59.3l-.1-.1L2149.5 0h-164.9l827.6 589 .1.1M3637 648v-59.7l-81.8 59.7m81.8-295l-412.8 295h166.1L3637 471.1m0-353.4L2893.4 648h166L3637 235.8"/>
  <path fill="#005EAE" d="M3637 0h1819v648H3637z"/>
  <path fill="#0067B4" d="M3802.2 117l46.9 33.4-46.9-33.4m-83.5-59.1l-81.7 58.6v118.3l164.6-117.7m580.7 413L4216.7 648h166.1l82.5-58.5M4229 420.3l-76.5-54.4-302.4-215.1 35.1 25.4L3637 352.4v118.1l331.2-235.2 82.2 58.6L3637 587.8V648h83.7l413.7-294.4 82.4 59L3885.6 648h166.1l248.1-176.6M5376.9 58.2l-.1-.1L5294 0h-165l165.2 116.8.2.2m-83.2 59.2l-.2-.1L4962.6 0h-165l330.9 234.9.1.1m-83.2 59.2l-.1-.1L4631.1 0h-164.9l496.5 352.9.2.1m-83.2 59.3l-.2-.2L4299.7 0H4135l661.9 470.9.2.1m-83.2 59.3l-.1-.1L3968.5 0h-164.9l827.6 589 .1.1M5456 648v-59.7l-81.8 59.7m81.8-295l-412.8 295h166.1L5456 471.1m0-353.4L4712.4 648h166L5456 235.8"/>
  <path fill="#005EAE" d="M0 0h1819v648H0z"/>
  <path fill="#0067B4" d="M165.2 117l46.9 33.4-46.9-33.4M81.7 57.9L0 116.5v118.3l164.6-117.7m580.7 413L579.7 648h166.1l82.5-58.5M592 420.3l-76.5-54.4-302.4-215.1 35.1 25.4L0 352.4v118.1l331.2-235.2 82.2 58.6L0 587.8V648h83.7l413.7-294.4 82.4 59L248.6 648h166.1l248.1-176.6M1739.9 58.2l-.1-.1L1657 0h-165l165.2 116.8.2.2m-83.2 59.2l-.2-.1L1325.6 0h-165l330.9 234.9.1.1m-83.2 59.2l-.1-.1L994.1 0H829.2l496.5 352.9.2.1m-83.2 59.3l-.2-.2L662.7 0H498l661.9 470.9.2.1m-83.2 59.3l-.1-.1L331.5 0H166.6l827.6 589 .1.1M1819 648v-59.7l-81.8 59.7m81.8-295l-412.8 295h166.1L1819 471.1m0-353.4L1075.4 648h166L1819 235.8"/>
</svg>
