<?xml version="1.0" encoding="utf-8"?>
<!-- Generated by IcoMoon.io -->
<!DOCTYPE svg PUBLIC "-//W3C//DTD SVG 1.1//EN" "http://www.w3.org/Graphics/SVG/1.1/DTD/svg11.dtd">
<svg version="1.1" xmlns="http://www.w3.org/2000/svg" xmlns:xlink="http://www.w3.org/1999/xlink" width="101" height="32" viewBox="0 0 101 32">
<path d="M15.962 32l-2.597-6.625h-8.348l-2.572 6.625h-2.445l8.234-20.928h2.040l8.196 20.928h-2.508zM12.618 23.196l-2.42-6.461c-0.317-0.823-0.633-1.824-0.975-3.002-0.215 0.912-0.507 1.913-0.899 3.002l-2.458 6.461h6.752z"></path>
<path d="M54.207 32l-3.142-8.006h-10.097l-3.091 8.006h-2.964l9.957-25.299h2.47l9.907 25.299h-3.040zM50.166 21.346l-2.926-7.804c-0.38-0.988-0.773-2.204-1.165-3.636-0.253 1.102-0.621 2.318-1.089 3.636l-2.964 7.804h8.146z"></path>
<path d="M97.571 32l-3.965-10.135h-12.77l-3.927 10.135h-3.75l12.592-32h3.116l12.529 32h-3.826zM92.453 18.534l-3.699-9.869c-0.481-1.254-0.975-2.787-1.482-4.599-0.317 1.393-0.773 2.926-1.368 4.599l-3.75 9.869h10.299z"></path>
</svg>
