<?xml version="1.0" encoding="utf-8"?>
<!-- Generator: Adobe Illustrator 17.1.0, SVG Export Plug-In . SVG Version: 6.00 Build 0)  -->
<!DOCTYPE svg PUBLIC "-//W3C//DTD SVG 1.1//EN" "http://www.w3.org/Graphics/SVG/1.1/DTD/svg11.dtd">
<svg version="1.1" id="Layer_1" xmlns="http://www.w3.org/2000/svg" xmlns:xlink="http://www.w3.org/1999/xlink" x="0px" y="0px"
	 viewBox="0 881.2 2000 237.5" enable-background="new 0 881.2 2000 237.5" xml:space="preserve">
<g>
	<path fill="#02958D" d="M666.4,881.2h666.8v237.5H666.4V881.2z"/>
	<path fill="#02958D" d="M1333.2,881.2H2000v237.5h-666.8V881.2z"/>
	<path fill="#02958D" d="M0,881.2h666.8v237.5H0V881.2z"/>
</g>
<g>
	<path fill="#009A92" d="M727,924.1l17.2,12.2L727,924.1 M696.4,902.5l-29.9,21.5v43.4l60.3-43.1 M939.6,1075.5l-60.7,43.2h60.9
		l30.2-21.4 M883.4,1035.3l-28-19.9l-110.9-78.8l12.9,9.3l-91,64.6v43.3l121.4-86.2L818,989l-151.5,107.7v22.1h30.7l151.6-107.9
		l30.2,21.6l-121.4,86.3h60.9l90.9-64.7 M1304.2,902.6L1304.2,902.6l-30.4-21.3h-60.5l60.6,42.8l0.1,0.1 M1243.5,945.8L1243.5,945.8
		l-91.1-64.6h-60.5l121.3,86.1l0,0 M1182.7,989.1L1182.7,989.1l-151.9-107.8h-60.4l182,129.4l0.1,0 M1122,1032.4L1122,1032.4
		L909.3,881.2H849l242.6,172.6l0.1,0 M1061.2,1075.6L1061.2,1075.6L787.9,881.2h-60.4l303.4,215.9l0,0 M1333.2,1118.8v-21.9
		l-30,21.9 M1333.2,1010.6l-151.3,108.1h60.9l90.4-64.8 M1333.2,924.4l-272.6,194.4h60.9l211.7-151.1"/>
	<path fill="#009A92" d="M1393.8,924.1l17.2,12.2L1393.8,924.1 M1363.2,902.5l-29.9,21.5v43.4l60.3-43.1 M1606.4,1075.5l-60.7,43.2
		h60.9l30.2-21.4 M1550.2,1035.3l-28-19.9l-110.9-78.8l12.9,9.3l-91,64.6v43.3l121.4-86.2l30.1,21.5l-151.5,107.7v22.1h30.7
		l151.6-107.9l30.2,21.6l-121.4,86.3h60.9l90.9-64.7 M1971,902.6L1971,902.6l-30.4-21.3h-60.5l60.6,42.8l0.1,0.1 M1910.3,945.8
		L1910.3,945.8l-91.1-64.6h-60.5l121.3,86.1l0,0 M1849.5,989.1L1849.5,989.1l-151.9-107.8h-60.4l182,129.4l0.1,0 M1788.7,1032.4
		L1788.7,1032.4l-212.6-151.1h-60.4l242.6,172.6l0.1,0 M1728,1075.6L1728,1075.6l-273.2-194.4h-60.4l303.4,215.9l0,0 M2000,1118.8
		v-21.9l-30,21.9 M2000,1010.6l-151.3,108.1h60.9l90.4-64.8 M2000,924.4l-272.6,194.4h60.9L2000,967.7"/>
	<path fill="#009A92" d="M60.6,924.1l17.2,12.2L60.6,924.1 M29.9,902.5L0,923.9v43.4l60.3-43.1 M273.2,1075.5l-60.7,43.2h60.9
		l30.2-21.4 M217,1035.3l-28-19.9L78.1,936.5l12.9,9.3l-91,64.6v43.3l121.4-86.2l30.1,21.5L0,1096.7v22.1h30.7l151.6-107.9
		l30.2,21.6l-121.4,86.3H152L243,1054 M637.8,902.6L637.8,902.6l-30.4-21.3h-60.5l60.6,42.8l0.1,0.1 M577.1,945.8L577.1,945.8
		l-91.1-64.6h-60.5l121.3,86.1l0,0 M516.3,989.1L516.3,989.1L364.4,881.2H304l182,129.4l0.1,0 M455.5,1032.4L455.5,1032.4
		L242.9,881.2h-60.4l242.6,172.6l0.1,0 M394.8,1075.6L394.8,1075.6L121.5,881.2H61.1l303.4,215.9l0,0 M666.8,1118.8v-21.9l-30,21.9
		 M666.8,1010.6l-151.3,108.1h60.9l90.4-64.8 M666.8,924.4l-272.6,194.4h60.9l211.7-151.1"/>
</g>
</svg>
