<?xml version="1.0" encoding="utf-8"?>
<!-- Generator: Adobe Illustrator 17.1.0, SVG Export Plug-In . SVG Version: 6.00 Build 0)  -->
<!DOCTYPE svg PUBLIC "-//W3C//DTD SVG 1.1//EN" "http://www.w3.org/Graphics/SVG/1.1/DTD/svg11.dtd">
<svg version="1.1" id="Layer_1" xmlns="http://www.w3.org/2000/svg" xmlns:xlink="http://www.w3.org/1999/xlink" x="0px" y="0px"
	 viewBox="-1.1 643.6 2001.1 712.9" enable-background="new -1.1 643.6 2001.1 712.9" xml:space="preserve">
<path fill="#02958D" d="M-1.1,643.6H2000v712.9H-1.1V643.6z"/>
<path fill="#009A92" d="M180.6,772.3l51.6,36.7L180.6,772.3 M88.8,707.3l-89.9,64.5v130.1L180,772.4 M818.8,1226.7l-182.2,129.7
	h182.7l90.8-64.4 M650.2,1105.9l-84.2-59.8L233.3,809.5l38.6,27.9l-273,193.8v129.9l364.4-258.7l90.4,64.5L-1.1,1290.2v66.2H91
	l455.1-323.9l90.6,64.9l-364.4,259h182.7l272.9-194.3 M1913,707.6l-0.1-0.1l-91.1-63.9h-181.5L1822,772.1l0.2,0.2 M1730.7,837.4
	l-0.2-0.1l-273.3-193.7h-181.5l364,258.4l0.1,0.1 M1548.3,967.2l-0.1-0.1l-455.7-323.5H911.1l546.2,388.2l0.2,0.1 M1366,1097.1
	l-0.2-0.2L727.9,643.6H546.8l728.2,518l0.2,0.1 M1183.6,1227l-0.1-0.1L363.6,643.6H182.2l910.5,648l0.1,0.1 M2000,1356.4v-65.7
	l-90,65.7 M2000,1031.9l-454.1,324.5h182.7l271.4-194.6 M2000,773l-818,583.4h182.6L2000,903"/>
</svg>
