<svg xmlns="http://www.w3.org/2000/svg" viewBox="0 0 1818 648">
  <path fill="#005EAE" d="M-1 0h1819v648H-1z"/>
  <path fill="#0067B4" d="M164.2 117l46.9 33.4-46.9-33.4M80.7 57.9L-1 116.5v118.3l164.6-117.7m580.7 413L578.7 648h166.1l82.5-58.5M591 420.3l-76.5-54.4-302.4-215.1 35.1 25.4L-1 352.4v118.1l331.2-235.2 82.2 58.6L-1 587.8V648h83.7l413.7-294.4 82.4 59L247.6 648h166.1l248.1-176.6M1738.9 58.2l-.1-.1L1656 0h-165l165.2 116.8.2.2m-83.2 59.2l-.2-.1L1324.6 0h-165l330.9 234.9.1.1m-83.2 59.2l-.1-.1L993.1 0H828.2l496.5 352.9.2.1m-83.2 59.3l-.2-.2L661.7 0H497l661.9 470.9.2.1m-83.2 59.3l-.1-.1L330.5 0H165.6l827.6 589 .1.1M1818 648v-59.7l-81.8 59.7m81.8-295l-412.8 295h166.1L1818 471.1m0-353.4L1074.4 648h166L1818 235.8"/>
</svg>
